<svg width="21" height="21" viewBox="0 0 21 21" fill="none" xmlns="http://www.w3.org/2000/svg">
<path d="M20.8898 8.32L20.0998 5.8C20.0145 5.50876 19.8714 5.23767 19.6791 5.00292C19.4867 4.76817 19.2491 4.57456 18.9803 4.43364C18.7116 4.29272 18.4171 4.20737 18.1147 4.1827C17.8122 4.15802 17.5079 4.19451 17.2198 4.29L16.8798 4.4C16.6134 4.48805 16.3297 4.51039 16.0529 4.46511C15.776 4.41984 15.5142 4.3083 15.2898 4.14L15.1798 4.06C14.9608 3.89237 14.7842 3.67562 14.6644 3.42723C14.5445 3.17884 14.4847 2.90575 14.4898 2.63V2.35C14.4947 1.72202 14.2501 1.11779 13.8098 0.67C13.6004 0.458452 13.3512 0.290362 13.0766 0.175383C12.8021 0.0604042 12.5075 0.000802192 12.2098 0H9.65979C9.04797 0.00790627 8.46404 0.257192 8.03514 0.693583C7.60624 1.12997 7.3671 1.71813 7.36979 2.33V2.57C7.36883 2.86027 7.30274 3.14663 7.1764 3.40796C7.05006 3.6693 6.86669 3.89895 6.63979 4.08L6.50979 4.18C6.25913 4.36962 5.96596 4.49516 5.65575 4.5457C5.34554 4.59624 5.02767 4.57025 4.72979 4.47C4.45621 4.37533 4.16626 4.33715 3.87749 4.35777C3.58872 4.3784 3.30714 4.4574 3.04979 4.59C2.78184 4.72299 2.54413 4.90969 2.35145 5.1385C2.15877 5.36731 2.01524 5.63333 1.92979 5.92L1.10979 8.52C0.919633 9.1062 0.968399 9.74374 1.2455 10.2942C1.5226 10.8447 2.00566 11.2636 2.58979 11.46H2.74979C3.01925 11.561 3.2611 11.7241 3.4557 11.9361C3.6503 12.148 3.79217 12.4029 3.86979 12.68L3.92979 12.84C4.04127 13.1461 4.07855 13.4743 4.03856 13.7977C3.99858 14.121 3.88248 14.4302 3.69979 14.7C3.33001 15.2036 3.17403 15.8328 3.2658 16.4508C3.35756 17.0688 3.68964 17.6256 4.18979 18L6.25979 19.57C6.65174 19.855 7.12523 20.0058 7.60979 20C7.73948 20.0127 7.8701 20.0127 7.99979 20C8.29989 19.9419 8.58501 19.8233 8.83775 19.6514C9.09049 19.4794 9.30554 19.2578 9.46979 19L9.69979 18.67C9.86113 18.4386 10.0746 18.2483 10.323 18.1145C10.5714 17.9808 10.8478 17.9073 11.1298 17.9C11.4253 17.8927 11.7179 17.9604 11.9802 18.0968C12.2425 18.2332 12.466 18.4339 12.6298 18.68L12.7498 18.85C12.9203 19.1037 13.1409 19.3199 13.3981 19.4852C13.6553 19.6504 13.9436 19.7613 14.2452 19.8109C14.5469 19.8606 14.8555 19.848 15.1521 19.7739C15.4487 19.6997 15.727 19.5657 15.9698 19.38L17.9998 17.86C18.4798 17.4872 18.799 16.945 18.8919 16.3444C18.9849 15.7438 18.8446 15.1304 18.4998 14.63L18.2398 14.25C18.0834 14.0084 17.9811 13.736 17.9396 13.4512C17.8982 13.1664 17.9187 12.8761 17.9998 12.6C18.0824 12.3044 18.2357 12.0334 18.4466 11.8104C18.6574 11.5874 18.9193 11.4191 19.2098 11.32L19.4098 11.25C19.9885 11.0492 20.4665 10.6312 20.7426 10.0845C21.0188 9.53769 21.0716 8.90496 20.8898 8.32ZM10.9998 13.5C10.3076 13.5 9.63087 13.2947 9.05529 12.9101C8.47972 12.5256 8.03112 11.9789 7.76621 11.3394C7.50131 10.6999 7.43199 9.99612 7.56704 9.31718C7.70209 8.63825 8.03543 8.01461 8.52492 7.52513C9.0144 7.03564 9.63804 6.7023 10.317 6.56725C10.9959 6.4322 11.6996 6.50151 12.3392 6.76642C12.9787 7.03133 13.5253 7.47993 13.9099 8.0555C14.2945 8.63108 14.4998 9.30777 14.4998 10C14.4998 10.9283 14.131 11.8185 13.4747 12.4749C12.8183 13.1313 11.928 13.5 10.9998 13.5Z" fill="white"/>
</svg>
